<svg xmlns="http://www.w3.org/2000/svg" xmlns:xlink="http://www.w3.org/1999/xlink" width="500" zoomAndPan="magnify" viewBox="0 0 375 187.499995" height="250" preserveAspectRatio="xMidYMid meet" version="1.0"><defs><g/><clipPath id="6b52146574"><path d="M 12.054688 27.015625 L 100.320312 27.015625 L 100.320312 154.921875 L 12.054688 154.921875 Z M 12.054688 27.015625 " clip-rule="nonzero"/></clipPath></defs><g clip-path="url(#6b52146574)"><path fill="#232324" d="M 100.324219 154.800781 L 31.40625 154.800781 L 31.40625 53.078125 L 13.316406 71.140625 L 13.316406 154.167969 L 12.054688 154.167969 L 12.054688 70.617188 L 31.40625 51.296875 L 31.40625 31.308594 L 41.410156 41.300781 L 55.589844 27.148438 L 100.320312 71.816406 L 100.320312 154.800781 Z M 32.667969 153.539062 L 99.058594 153.539062 L 99.058594 72.339844 L 55.589844 28.929688 L 42.304688 42.195312 L 76.546875 76.386719 L 76.546875 113.273438 L 75.285156 113.273438 L 75.285156 76.910156 L 41.414062 43.085938 L 32.667969 51.816406 Z M 32.667969 34.355469 L 32.667969 50.035156 L 40.519531 42.195312 Z M 66.027344 154.160156 L 65.605469 123.429688 L 46.351562 123.429688 L 46.351562 154.167969 L 47.613281 154.167969 L 47.613281 124.691406 L 64.359375 124.691406 L 64.769531 154.175781 Z M 66.027344 154.160156 " fill-opacity="1" fill-rule="nonzero"/></g><g fill="#232324" fill-opacity="1"><g transform="translate(111.383019, 115.536995)"><g><path d="M 22.492188 -18.308594 C 26.414062 -19.40625 29.292969 -23.015625 29.292969 -27.253906 C 29.292969 -32.378906 25.109375 -36.5625 19.980469 -36.5625 L 2.355469 -36.5625 C 2.25 -36.5625 2.195312 -36.457031 2.195312 -36.355469 C 2.195312 -36.25 2.25 -36.195312 2.355469 -36.195312 C 3.558594 -36.195312 4.550781 -35.203125 4.550781 -34 L 4.550781 -2.355469 C 4.550781 -1.152344 3.558594 -0.15625 2.355469 -0.15625 C 2.25 -0.15625 2.195312 -0.0507812 2.195312 0 C 2.195312 0.105469 2.25 0.210938 2.355469 0.210938 L 4.707031 0.210938 C 4.707031 0.210938 10.199219 0.210938 10.199219 0.210938 L 21.96875 0.210938 C 27.09375 0.210938 31.226562 -3.976562 31.226562 -9.050781 C 31.226562 -14.019531 27.355469 -18.046875 22.492188 -18.308594 Z M 21.96875 -0.15625 L 10.355469 -0.15625 L 10.355469 -36.195312 L 19.980469 -36.195312 C 21.863281 -36.195312 23.382812 -32.117188 23.382812 -27.253906 C 23.382812 -22.441406 21.863281 -18.359375 19.980469 -18.359375 L 15.117188 -18.359375 C 15.011719 -18.359375 14.90625 -18.253906 14.90625 -18.152344 C 14.90625 -18.046875 15.011719 -17.992188 15.117188 -17.992188 L 21.96875 -17.992188 C 23.800781 -17.992188 25.371094 -13.914062 25.371094 -9.050781 C 25.371094 -4.238281 23.800781 -0.15625 21.96875 -0.15625 Z M 21.96875 -0.15625 "/></g></g></g><g fill="#232324" fill-opacity="1"><g transform="translate(150.035851, 115.536995)"><g><path d="M 12.554688 -0.15625 C 11.351562 -0.15625 10.355469 -1.152344 10.355469 -2.355469 L 10.355469 -34 C 10.355469 -35.203125 11.351562 -36.195312 12.554688 -36.195312 C 12.660156 -36.195312 12.710938 -36.25 12.710938 -36.355469 C 12.710938 -36.457031 12.660156 -36.5625 12.554688 -36.5625 L 2.355469 -36.5625 C 2.25 -36.5625 2.195312 -36.457031 2.195312 -36.355469 C 2.195312 -36.25 2.25 -36.195312 2.355469 -36.195312 C 3.558594 -36.195312 4.550781 -35.203125 4.550781 -34 L 4.550781 -2.355469 C 4.550781 -1.152344 3.558594 -0.15625 2.355469 -0.15625 C 2.25 -0.15625 2.195312 -0.0507812 2.195312 0 C 2.195312 0.105469 2.25 0.210938 2.355469 0.210938 L 12.554688 0.210938 C 12.660156 0.210938 12.710938 0.105469 12.710938 0 C 12.710938 -0.0507812 12.660156 -0.15625 12.554688 -0.15625 Z M 12.554688 -0.15625 "/></g></g></g><g fill="#232324" fill-opacity="1"><g transform="translate(170.068985, 115.536995)"><g><path d="M 30.964844 -0.890625 C 30.863281 -0.941406 30.757812 -0.941406 30.703125 -0.890625 C 30.652344 -0.835938 30.652344 -0.835938 30.652344 -0.785156 C 29.921875 -0.15625 28.875 -0.210938 28.195312 -0.890625 C 27.828125 -1.203125 27.671875 -1.675781 27.671875 -2.144531 L 27.671875 -9.050781 C 27.671875 -13.441406 24.636719 -17.105469 20.609375 -18.097656 C 25.109375 -18.726562 28.558594 -22.597656 28.558594 -27.253906 C 28.558594 -32.378906 24.375 -36.5625 19.300781 -36.5625 L 2.355469 -36.5625 C 2.25 -36.5625 2.195312 -36.457031 2.195312 -36.355469 C 2.195312 -36.25 2.25 -36.195312 2.355469 -36.195312 C 3.558594 -36.195312 4.550781 -35.203125 4.550781 -34 L 4.550781 -2.300781 C 4.550781 -1.097656 3.558594 -0.15625 2.355469 -0.15625 C 2.25 -0.15625 2.195312 -0.0507812 2.195312 0.0507812 C 2.195312 0.105469 2.25 0.210938 2.355469 0.210938 L 12.554688 0.210938 C 12.660156 0.210938 12.710938 0.105469 12.710938 0.0507812 C 12.710938 -0.0507812 12.660156 -0.15625 12.554688 -0.15625 C 11.351562 -0.15625 10.355469 -1.097656 10.355469 -2.300781 L 10.355469 -36.195312 L 19.300781 -36.195312 C 21.132812 -36.195312 22.703125 -32.117188 22.703125 -27.253906 C 22.703125 -22.441406 21.132812 -18.359375 19.300781 -18.359375 C 19.25 -18.359375 19.195312 -18.359375 19.195312 -18.308594 C 18.933594 -18.359375 18.675781 -18.359375 18.414062 -18.359375 C 18.308594 -18.359375 18.203125 -18.253906 18.203125 -18.152344 C 18.203125 -18.046875 18.308594 -17.992188 18.414062 -17.992188 C 20.242188 -17.992188 21.8125 -13.914062 21.8125 -9.050781 L 21.8125 -4.394531 C 21.8125 -2.980469 22.335938 -1.621094 23.382812 -0.628906 C 24.375 0.417969 25.789062 0.941406 27.148438 0.941406 C 28.507812 0.941406 29.816406 0.472656 30.863281 -0.523438 C 30.914062 -0.574219 30.914062 -0.574219 30.964844 -0.628906 C 31.019531 -0.679688 31.019531 -0.785156 30.964844 -0.890625 Z M 30.964844 -0.890625 "/></g></g></g><g fill="#232324" fill-opacity="1"><g transform="translate(207.72808, 115.536995)"><g><path d="M 12.554688 -36.195312 C 12.660156 -36.195312 12.710938 -36.25 12.710938 -36.355469 C 12.710938 -36.457031 12.660156 -36.5625 12.554688 -36.5625 L 2.355469 -36.5625 C 2.25 -36.5625 2.195312 -36.457031 2.195312 -36.355469 C 2.195312 -36.25 2.25 -36.195312 2.355469 -36.195312 C 3.558594 -36.195312 4.550781 -35.203125 4.550781 -34 L 4.550781 -2.355469 C 4.550781 -1.152344 3.558594 -0.15625 2.355469 -0.15625 C 2.25 -0.15625 2.195312 -0.0507812 2.195312 0 C 2.195312 0.105469 2.25 0.210938 2.355469 0.210938 L 12.554688 0.210938 C 12.660156 0.210938 12.710938 0.105469 12.710938 0 C 12.710938 -0.0507812 12.660156 -0.15625 12.554688 -0.15625 C 11.351562 -0.15625 10.355469 -1.152344 10.355469 -2.355469 L 10.355469 -34 C 10.355469 -35.203125 11.351562 -36.195312 12.554688 -36.195312 Z M 31.28125 -0.15625 C 30.023438 -0.15625 28.457031 -1.152344 27.722656 -2.40625 L 17.367188 -20.558594 L 27.304688 -33.894531 C 28.246094 -35.152344 30.023438 -36.195312 31.28125 -36.195312 C 31.382812 -36.195312 31.4375 -36.25 31.4375 -36.355469 C 31.4375 -36.457031 31.382812 -36.5625 31.28125 -36.5625 L 26.574219 -36.5625 C 26.46875 -36.5625 26.363281 -36.457031 26.363281 -36.355469 C 26.363281 -36.25 26.46875 -36.195312 26.574219 -36.195312 C 26.886719 -36.195312 27.304688 -36.09375 27.460938 -35.777344 C 27.671875 -35.414062 27.515625 -34.785156 26.992188 -34.105469 L 13.441406 -15.902344 C 13.390625 -15.847656 13.390625 -15.847656 13.390625 -15.847656 C 13.390625 -15.796875 13.390625 -15.796875 13.390625 -15.796875 C 13.390625 -15.796875 13.390625 -15.796875 13.390625 -15.746094 C 13.390625 -15.746094 13.390625 -15.691406 13.390625 -15.691406 L 21.078125 -2.25 C 21.445312 -1.621094 21.550781 -1.046875 21.289062 -0.628906 C 21.132812 -0.3125 20.765625 -0.15625 20.242188 -0.15625 C 20.136719 -0.15625 20.085938 -0.0507812 20.085938 0 C 20.085938 0.105469 20.136719 0.210938 20.242188 0.210938 L 31.28125 0.210938 C 31.382812 0.210938 31.4375 0.105469 31.4375 0 C 31.4375 -0.0507812 31.382812 -0.15625 31.28125 -0.15625 Z M 31.28125 -0.15625 "/></g></g></g><g fill="#232324" fill-opacity="1"><g transform="translate(244.916443, 115.536995)"><g><path d="M 34.890625 -0.15625 C 33.632812 -0.15625 32.273438 -1.152344 31.75 -2.355469 L 17.835938 -37.242188 C 17.835938 -37.242188 17.835938 -37.296875 17.785156 -37.296875 C 17.785156 -37.296875 17.730469 -37.347656 17.730469 -37.347656 C 17.679688 -37.347656 17.679688 -37.347656 17.679688 -37.347656 C 17.679688 -37.347656 17.679688 -37.347656 17.628906 -37.347656 C 17.574219 -37.347656 17.574219 -37.347656 17.574219 -37.347656 C 17.574219 -37.347656 17.574219 -37.296875 17.574219 -37.296875 C 17.523438 -37.296875 17.523438 -37.296875 17.523438 -37.296875 C 17.523438 -37.296875 17.523438 -37.242188 17.523438 -37.242188 L 14.542969 -29.867188 C 14.542969 -29.816406 14.542969 -29.761719 14.542969 -29.710938 L 21.863281 -11.351562 L 7.269531 -11.351562 C 7.269531 -11.351562 7.269531 -11.351562 7.21875 -11.351562 C 7.21875 -11.351562 7.21875 -11.296875 7.167969 -11.296875 C 7.167969 -11.246094 7.113281 -11.246094 7.113281 -11.246094 L 3.609375 -2.40625 C 3.085938 -1.152344 1.675781 -0.15625 0.472656 -0.15625 C 0.367188 -0.15625 0.3125 -0.0507812 0.3125 0.0507812 C 0.3125 0.105469 0.367188 0.210938 0.472656 0.210938 L 5.179688 0.210938 C 5.28125 0.210938 5.335938 0.105469 5.335938 0.0507812 C 5.335938 -0.0507812 5.28125 -0.15625 5.179688 -0.15625 C 4.65625 -0.15625 4.238281 -0.367188 3.976562 -0.679688 C 3.714844 -1.097656 3.714844 -1.675781 3.921875 -2.25 L 7.425781 -10.984375 L 22.023438 -10.984375 L 25.527344 -2.25 C 25.734375 -1.675781 25.734375 -1.097656 25.472656 -0.679688 C 25.210938 -0.367188 24.792969 -0.15625 24.269531 -0.15625 C 24.167969 -0.15625 24.0625 -0.0507812 24.0625 0.0507812 C 24.0625 0.105469 24.167969 0.210938 24.269531 0.210938 L 34.890625 0.210938 C 34.941406 0.210938 35.046875 0.105469 35.046875 0.0507812 C 35.046875 -0.0507812 34.941406 -0.15625 34.890625 -0.15625 Z M 34.890625 -0.15625 "/></g></g></g><g fill="#232324" fill-opacity="1"><g transform="translate(285.399885, 115.536995)"><g><path d="M 22.492188 -18.308594 C 26.414062 -19.40625 29.292969 -23.015625 29.292969 -27.253906 C 29.292969 -32.378906 25.109375 -36.5625 19.980469 -36.5625 L 2.355469 -36.5625 C 2.25 -36.5625 2.195312 -36.457031 2.195312 -36.355469 C 2.195312 -36.25 2.25 -36.195312 2.355469 -36.195312 C 3.558594 -36.195312 4.550781 -35.203125 4.550781 -34 L 4.550781 -2.355469 C 4.550781 -1.152344 3.558594 -0.15625 2.355469 -0.15625 C 2.25 -0.15625 2.195312 -0.0507812 2.195312 0 C 2.195312 0.105469 2.25 0.210938 2.355469 0.210938 L 4.707031 0.210938 C 4.707031 0.210938 10.199219 0.210938 10.199219 0.210938 L 21.96875 0.210938 C 27.09375 0.210938 31.226562 -3.976562 31.226562 -9.050781 C 31.226562 -14.019531 27.355469 -18.046875 22.492188 -18.308594 Z M 21.96875 -0.15625 L 10.355469 -0.15625 L 10.355469 -36.195312 L 19.980469 -36.195312 C 21.863281 -36.195312 23.382812 -32.117188 23.382812 -27.253906 C 23.382812 -22.441406 21.863281 -18.359375 19.980469 -18.359375 L 15.117188 -18.359375 C 15.011719 -18.359375 14.90625 -18.253906 14.90625 -18.152344 C 14.90625 -18.046875 15.011719 -17.992188 15.117188 -17.992188 L 21.96875 -17.992188 C 23.800781 -17.992188 25.371094 -13.914062 25.371094 -9.050781 C 25.371094 -4.238281 23.800781 -0.15625 21.96875 -0.15625 Z M 21.96875 -0.15625 "/></g></g></g><g fill="#232324" fill-opacity="1"><g transform="translate(324.052707, 115.536995)"><g><path d="M 20.347656 -37.347656 C 10.304688 -37.347656 2.195312 -28.769531 2.195312 -18.203125 C 2.195312 -7.636719 10.304688 0.941406 20.347656 0.941406 C 30.339844 0.941406 38.5 -7.636719 38.5 -18.203125 C 38.5 -28.769531 30.339844 -37.347656 20.347656 -37.347656 Z M 20.347656 0.574219 C 13.914062 0.574219 8.683594 -7.847656 8.683594 -18.203125 C 8.683594 -28.558594 13.914062 -36.980469 20.347656 -36.980469 C 26.730469 -36.980469 31.960938 -28.558594 31.960938 -18.203125 C 31.960938 -7.847656 26.730469 0.574219 20.347656 0.574219 Z M 20.347656 0.574219 "/></g></g></g><g fill="#232324" fill-opacity="1"><g transform="translate(113.249995, 133.420301)"><g><path d="M 1.300781 -11.386719 C 1.03125 -11.386719 0.8125 -11.167969 0.8125 -10.898438 L 0.8125 -0.199219 C 0.8125 0.0546875 0.941406 0.164062 1.589844 0.164062 C 2.242188 0.164062 2.347656 0.0546875 2.347656 -0.199219 L 2.347656 -4.210938 L 5.53125 -4.210938 C 5.746094 -4.210938 5.855469 -4.300781 5.855469 -4.878906 C 5.855469 -5.457031 5.746094 -5.546875 5.53125 -5.546875 L 2.347656 -5.546875 L 2.347656 -10.046875 L 6.359375 -10.046875 C 6.578125 -10.046875 6.667969 -10.136719 6.667969 -10.714844 C 6.667969 -11.292969 6.578125 -11.386719 6.359375 -11.386719 Z M 1.300781 -11.386719 "/></g></g></g><g fill="#232324" fill-opacity="1"><g transform="translate(123.293823, 133.420301)"><g><path d="M 4.425781 -12.886719 C 4.425781 -12.6875 4.554688 -12.613281 5.132812 -12.613281 C 5.710938 -12.613281 5.820312 -12.6875 5.820312 -12.886719 L 5.820312 -13.664062 C 5.820312 -13.859375 5.710938 -13.953125 5.132812 -13.953125 C 4.554688 -13.953125 4.425781 -13.859375 4.425781 -13.664062 Z M 2.242188 -12.886719 C 2.242188 -12.6875 2.347656 -12.613281 2.925781 -12.613281 C 3.507812 -12.613281 3.613281 -12.6875 3.613281 -12.886719 L 3.613281 -13.664062 C 3.613281 -13.859375 3.507812 -13.953125 2.925781 -13.953125 C 2.347656 -13.953125 2.242188 -13.859375 2.242188 -13.664062 Z M 2.113281 -5.691406 C 2.113281 -9.234375 2.691406 -10.210938 4.066406 -10.210938 C 5.441406 -10.210938 6.019531 -9.269531 6.019531 -5.691406 C 6.019531 -2.113281 5.457031 -1.191406 4.066406 -1.191406 C 2.675781 -1.191406 2.113281 -2.113281 2.113281 -5.691406 Z M 0.578125 -5.691406 C 0.578125 -1.390625 1.609375 0.164062 4.066406 0.164062 C 6.523438 0.164062 7.554688 -1.390625 7.554688 -5.691406 C 7.554688 -9.957031 6.523438 -11.546875 4.066406 -11.546875 C 1.609375 -11.546875 0.578125 -9.957031 0.578125 -5.691406 Z M 0.578125 -5.691406 "/></g></g></g><g fill="#232324" fill-opacity="1"><g transform="translate(134.565725, 133.420301)"><g><path d="M 0.8125 -0.199219 C 0.8125 0.0546875 0.941406 0.164062 1.589844 0.164062 C 2.242188 0.164062 2.347656 0.0546875 2.347656 -0.199219 L 2.347656 -4.390625 L 2.890625 -4.390625 C 4.589844 -4.390625 5.53125 -3.054688 5.53125 -0.199219 C 5.53125 0.0546875 5.636719 0.164062 6.289062 0.164062 C 6.941406 0.164062 7.066406 0.0546875 7.066406 -0.199219 C 7.066406 -2.710938 6.308594 -4.300781 4.714844 -4.953125 C 6.308594 -5.277344 7.085938 -6.324219 7.085938 -8.203125 C 7.085938 -10.625 5.890625 -11.546875 3.796875 -11.546875 C 2.097656 -11.546875 1.300781 -10.96875 1.011719 -10.734375 C 0.902344 -10.644531 0.8125 -10.519531 0.8125 -10.375 Z M 2.347656 -9.992188 C 2.65625 -10.121094 3.054688 -10.191406 3.578125 -10.191406 C 4.878906 -10.191406 5.53125 -9.632812 5.53125 -8.003906 C 5.53125 -6.378906 4.808594 -5.746094 3.433594 -5.746094 L 2.347656 -5.746094 Z M 2.347656 -9.992188 "/></g></g></g><g fill="#232324" fill-opacity="1"><g transform="translate(145.331952, 133.420301)"><g><path d="M 0.164062 -11.242188 L 0.164062 -11.167969 L 2.421875 -0.363281 C 2.492188 0.0742188 2.675781 0.164062 3.652344 0.164062 C 4.625 0.164062 4.824219 0.0742188 4.898438 -0.363281 L 7.15625 -11.167969 L 7.15625 -11.242188 C 7.15625 -11.4375 6.957031 -11.546875 6.398438 -11.546875 C 5.78125 -11.546875 5.601562 -11.4375 5.566406 -11.113281 L 3.652344 -1.230469 L 1.734375 -11.113281 C 1.699219 -11.4375 1.519531 -11.546875 0.902344 -11.546875 C 0.34375 -11.546875 0.164062 -11.4375 0.164062 -11.242188 Z M 0.164062 -11.242188 "/></g></g></g><g fill="#232324" fill-opacity="1"><g transform="translate(155.791161, 133.420301)"><g><path d="M 0.164062 -0.144531 C 0.164062 0.0546875 0.34375 0.164062 0.902344 0.164062 C 1.519531 0.164062 1.699219 0.0546875 1.734375 -0.269531 L 2.347656 -3.378906 L 4.96875 -3.378906 L 5.566406 -0.269531 C 5.601562 0.0546875 5.78125 0.164062 6.398438 0.164062 C 6.957031 0.164062 7.15625 0.0546875 7.15625 -0.144531 L 7.15625 -0.21875 L 4.898438 -11.023438 C 4.824219 -11.457031 4.625 -11.546875 3.652344 -11.546875 C 2.675781 -11.546875 2.492188 -11.457031 2.421875 -11.023438 L 0.164062 -0.21875 Z M 2.601562 -4.714844 L 3.652344 -10.15625 L 4.714844 -4.714844 Z M 2.601562 -4.714844 "/></g></g></g><g fill="#232324" fill-opacity="1"><g transform="translate(166.250369, 133.420301)"><g><path d="M 0.8125 -0.488281 C 0.8125 -0.21875 1.03125 0 1.300781 0 L 6.359375 0 C 6.578125 0 6.667969 -0.0898438 6.667969 -0.667969 C 6.667969 -1.246094 6.578125 -1.335938 6.359375 -1.335938 L 2.347656 -1.335938 L 2.347656 -11.1875 C 2.347656 -11.4375 2.242188 -11.546875 1.589844 -11.546875 C 0.941406 -11.546875 0.8125 -11.4375 0.8125 -11.1875 Z M 0.8125 -0.488281 "/></g></g></g><g fill="#232324" fill-opacity="1"><g transform="translate(176.221956, 133.420301)"><g><path d="M 0.164062 -10.714844 C 0.164062 -10.136719 0.253906 -10.046875 0.46875 -10.046875 L 2.710938 -10.046875 L 2.710938 -0.199219 C 2.710938 0.0546875 2.855469 0.164062 3.507812 0.164062 C 4.15625 0.164062 4.265625 0.0546875 4.265625 -0.199219 L 4.265625 -10.046875 L 6.503906 -10.046875 C 6.722656 -10.046875 6.832031 -10.136719 6.832031 -10.714844 C 6.832031 -11.292969 6.722656 -11.386719 6.503906 -11.386719 L 0.46875 -11.386719 C 0.253906 -11.386719 0.164062 -11.292969 0.164062 -10.714844 Z M 0.164062 -10.714844 "/></g></g></g><g fill="#232324" fill-opacity="1"><g transform="translate(186.356074, 133.420301)"><g><path d="M 0.8125 -0.199219 C 0.8125 0.0546875 0.941406 0.164062 1.589844 0.164062 C 2.242188 0.164062 2.347656 0.0546875 2.347656 -0.199219 L 2.347656 -7.96875 L 5.910156 -0.164062 C 5.980469 0.0546875 6.179688 0.164062 6.6875 0.164062 C 7.335938 0.164062 7.480469 0.0546875 7.480469 -0.199219 L 7.480469 -11.1875 C 7.480469 -11.4375 7.375 -11.546875 6.722656 -11.546875 C 6.070312 -11.546875 5.925781 -11.4375 5.925781 -11.1875 L 5.925781 -3.324219 C 5.023438 -5.1875 3.363281 -8.730469 2.386719 -11.222656 C 2.277344 -11.457031 2.113281 -11.546875 1.609375 -11.546875 C 0.957031 -11.546875 0.8125 -11.4375 0.8125 -11.1875 Z M 0.8125 -0.199219 "/></g></g></g><g fill="#232324" fill-opacity="1"><g transform="translate(197.790516, 133.420301)"><g><path d="M 0.8125 -0.199219 C 0.8125 0.0546875 0.941406 0.164062 1.589844 0.164062 C 2.242188 0.164062 2.347656 0.0546875 2.347656 -0.199219 L 2.347656 -11.1875 C 2.347656 -11.4375 2.242188 -11.546875 1.589844 -11.546875 C 0.941406 -11.546875 0.8125 -11.4375 0.8125 -11.1875 Z M 0.8125 -0.199219 "/></g></g></g><g fill="#232324" fill-opacity="1"><g transform="translate(204.095951, 133.420301)"><g><path d="M 0.8125 -0.199219 C 0.8125 0.0546875 0.941406 0.164062 1.589844 0.164062 C 2.242188 0.164062 2.347656 0.0546875 2.347656 -0.199219 L 2.347656 -7.96875 L 5.910156 -0.164062 C 5.980469 0.0546875 6.179688 0.164062 6.6875 0.164062 C 7.335938 0.164062 7.480469 0.0546875 7.480469 -0.199219 L 7.480469 -11.1875 C 7.480469 -11.4375 7.375 -11.546875 6.722656 -11.546875 C 6.070312 -11.546875 5.925781 -11.4375 5.925781 -11.1875 L 5.925781 -3.324219 C 5.023438 -5.1875 3.363281 -8.730469 2.386719 -11.222656 C 2.277344 -11.457031 2.113281 -11.546875 1.609375 -11.546875 C 0.957031 -11.546875 0.8125 -11.4375 0.8125 -11.1875 Z M 0.8125 -0.199219 "/></g></g></g><g fill="#232324" fill-opacity="1"><g transform="translate(215.530392, 133.420301)"><g><path d="M 4.535156 -11.546875 C 1.898438 -11.546875 0.578125 -9.847656 0.578125 -5.691406 C 0.578125 -1.535156 1.734375 0.164062 4.445312 0.164062 C 5.636719 0.164062 6.488281 -0.179688 6.921875 -0.632812 C 7.085938 -0.703125 7.191406 -0.867188 7.191406 -1.046875 L 7.191406 -5.875 C 7.191406 -6.144531 6.992188 -6.359375 6.722656 -6.359375 L 4.265625 -6.359375 C 4.046875 -6.359375 3.941406 -6.269531 3.941406 -5.691406 C 3.941406 -5.113281 4.046875 -5.023438 4.265625 -5.023438 L 5.636719 -5.023438 L 5.636719 -1.410156 C 5.332031 -1.28125 4.933594 -1.175781 4.425781 -1.175781 C 2.925781 -1.175781 2.113281 -2.277344 2.113281 -5.691406 C 2.113281 -8.945312 3 -10.191406 4.589844 -10.191406 C 5.332031 -10.191406 5.910156 -9.992188 6.269531 -9.542969 C 6.324219 -9.503906 6.378906 -9.488281 6.433594 -9.488281 C 6.542969 -9.488281 6.648438 -9.597656 6.867188 -9.921875 C 7.046875 -10.191406 7.121094 -10.355469 7.121094 -10.464844 C 7.121094 -10.554688 7.066406 -10.609375 6.992188 -10.664062 C 6.453125 -11.222656 5.675781 -11.546875 4.535156 -11.546875 Z M 4.535156 -11.546875 "/></g></g></g><g fill="#232324" fill-opacity="1"><g transform="translate(226.50697, 133.420301)"><g/></g></g></svg>